<?xml version="1.0" encoding="UTF-8" standalone="no"?>
<!-- Created with Inkscape (http://www.inkscape.org/) -->
<svg width="16" height="16" viewBox="0 0 4.2333333 4.2333333" version="1.1" id="svg294" inkscape:version="1.2.2 (732a01da63, 2022-12-09)" sodipodi:docname="Weapon3DIcon.svg" xmlns:inkscape="http://www.inkscape.org/namespaces/inkscape" xmlns:sodipodi="http://sodipodi.sourceforge.net/DTD/sodipodi-0.dtd" xmlns="http://www.w3.org/2000/svg" xmlns:svg="http://www.w3.org/2000/svg">
  <sodipodi:namedview id="namedview296" pagecolor="#ffffff" bordercolor="#000000" borderopacity="0.25" inkscape:showpageshadow="2" inkscape:pageopacity="0.0" inkscape:pagecheckerboard="0" inkscape:deskcolor="#d1d1d1" inkscape:document-units="mm" showgrid="true" inkscape:zoom="16" inkscape:cx="14.5" inkscape:cy="-2.4375" inkscape:window-width="1920" inkscape:window-height="1057" inkscape:window-x="-8" inkscape:window-y="-8" inkscape:window-maximized="1" inkscape:current-layer="layer1">
    <inkscape:grid type="xygrid" id="grid415" empspacing="4" spacingx="0.066145833" spacingy="0.066145833"/>
  </sodipodi:namedview>
  <defs id="defs291"/>
  <g inkscape:label="Layer 1" inkscape:groupmode="layer" id="layer1">
    <path id="path9168" style="fill:#8da5f3;fill-opacity:1;fill-rule:evenodd;stroke-width:0.555625;stroke-linecap:round;stroke-linejoin:round;stroke-miterlimit:3.4;paint-order:markers stroke fill" d="M 3.0427083 0.13229167 L 2.9104167 0.26458333 L 2.8442708 0.1984375 C 2.7781249 0.13229177 2.7781248 0.13229177 2.7119792 0.1984375 L 2.5135417 0.396875 L 2.38125 0.26458333 L 1.9182292 0.72760417 C 1.9182292 0.72760417 1.8520831 0.7937499 1.9182292 0.85989583 L 1.984375 0.92604167 L 0.92604167 1.984375 L 0.85989583 1.9182292 C 0.7937291 1.8520622 0.72760417 1.9182292 0.72760417 1.9182292 L 0.33072917 2.3151042 C 0.33072917 2.3151042 0.26458343 2.3812503 0.33072917 2.4473958 L 2.1166667 4.2333333 L 2.778125 3.571875 L 2.5135417 3.3072917 L 3.1088542 2.7119792 C 3.1088542 2.7119792 3.1750001 2.6458334 3.1088542 2.5796875 C 2.947838 2.4186714 2.7075692 2.2884765 2.7119792 2.0505208 L 3.7041667 1.0583333 L 3.3072917 0.66145833 L 3.4395833 0.52916667 L 3.0427083 0.13229167 z M 2.5135417 2.2489583 L 2.8442708 2.5796875 C 2.8442708 2.5796875 2.9104168 2.6458332 2.8442708 2.7119792 L 2.38125 3.175 L 1.984375 2.778125 C 2.3662901 2.9094179 2.4740349 2.9318605 2.7119792 2.7119792 C 2.7781251 2.6458332 2.7781251 2.6458334 2.7119792 2.5796875 C 2.6458332 2.5135426 2.6458331 2.5135426 2.5796875 2.5796875 C 2.4651683 2.6597112 2.3297177 2.6241984 2.1859131 2.5765869 L 2.5135417 2.2489583 z "/>
    <path style="fill:#000000;fill-opacity:1;fill-rule:evenodd;stroke-width:0.555625;stroke-linecap:round;stroke-linejoin:round;stroke-miterlimit:3.4;paint-order:markers stroke fill" d="m -1.2567708,1.3229166 0.26458331,-0.66145828 0.396875,0.66145828 -0.396875,0.5953125" id="path4821"/>
    <path id="path9168-2" style="fill:#fc7f7f;fill-opacity:1;fill-rule:evenodd;stroke-width:0.555625;stroke-linecap:round;stroke-linejoin:round;stroke-miterlimit:3.4;paint-order:markers stroke fill" d="M 9.4404803,-0.14055997 9.2420429,0.05787763 9.1097513,-0.07441403 8.6467303,0.38860669 c 0,0 -0.066146,0.0661458 10e-8,0.1322918 L 8.7128762,0.58704432 7.6545429,1.6453777 7.588418,1.5792528 c -0.066167,-0.066167 -0.1323127,-2.1e-5 -0.1323127,-2.1e-5 l -0.396875,0.396875 c 0,0 -0.066146,0.066146 0,0.1322916 L 8.8451679,3.894336 9.5066263,3.2328777 8.7128762,2.4391277 C 9.2861401,1.8658638 9.859404,1.2925999 10.432668,0.71933593 10.146036,0.43270395 9.859404,0.14607199 9.572772,-0.14055997 c -0.066146,-0.0661458 -0.066146,-0.0661458 -0.1322917,0 z" sodipodi:nodetypes="ccccccccccccccccc"/>
    <path style="fill:#000000;fill-opacity:1;fill-rule:evenodd;stroke-width:0.555625;stroke-linecap:round;stroke-linejoin:round;stroke-miterlimit:3.4;paint-order:markers stroke fill" d="M 7.9191262,1.7776694 9.3081888,0.38860681 c 0,0 0.066146,-0.0661458 0.1322916,-2e-8 l 10e-8,4e-8 c 0.066146,0.0661458 -10e-8,0.13229163 -10e-8,0.13229163 L 8.0514179,1.909961 c 0,0 -0.066146,0.066146 -0.1322917,0 v 0 c -0.066146,-0.066146 0,-0.1322916 0,-0.1322916 z" id="path5981-4" sodipodi:nodetypes="ccccccccc"/>
  </g>
</svg>