<?xml version="1.0" encoding="UTF-8" standalone="no"?>
<!-- Created with Inkscape (http://www.inkscape.org/) -->

<svg
   width="16"
   height="16"
   viewBox="0 0 4.2333333 4.2333333"
   version="1.1"
   id="svg36264"
   inkscape:version="1.2.2 (732a01da63, 2022-12-09)"
   sodipodi:docname="damage_instance_icon.svg"
   xmlns:inkscape="http://www.inkscape.org/namespaces/inkscape"
   xmlns:sodipodi="http://sodipodi.sourceforge.net/DTD/sodipodi-0.dtd"
   xmlns="http://www.w3.org/2000/svg"
   xmlns:svg="http://www.w3.org/2000/svg">
  <sodipodi:namedview
     id="namedview36266"
     pagecolor="#ffffff"
     bordercolor="#000000"
     borderopacity="0.25"
     inkscape:showpageshadow="2"
     inkscape:pageopacity="0.0"
     inkscape:pagecheckerboard="0"
     inkscape:deskcolor="#d1d1d1"
     inkscape:document-units="mm"
     showgrid="true"
     inkscape:zoom="45.254834"
     inkscape:cx="8.6841552"
     inkscape:cy="8.6841552"
     inkscape:window-width="1920"
     inkscape:window-height="1057"
     inkscape:window-x="-8"
     inkscape:window-y="-8"
     inkscape:window-maximized="1"
     inkscape:current-layer="layer1">
    <inkscape:grid
       type="xygrid"
       id="grid36385"
       empspacing="4"
       spacingx="0.13229167"
       spacingy="0.13229167" />
  </sodipodi:namedview>
  <defs
     id="defs36261">
    <inkscape:path-effect
       effect="mirror_symmetry"
       start_point="1.3229167,0.26458333"
       end_point="1.3229167,1.3229167"
       center_point="1.3229167,0.79375001"
       id="path-effect5355"
       is_visible="true"
       lpeversion="1.2"
       lpesatellites=""
       mode="vertical"
       discard_orig_path="false"
       fuse_paths="false"
       oposite_fuse="false"
       split_items="false"
       split_open="false"
       link_styles="false" />
    <inkscape:path-effect
       effect="mirror_symmetry"
       start_point="3.96875,0.26458333"
       end_point="3.96875,1.3229167"
       center_point="3.96875,0.79375001"
       id="path-effect5357"
       is_visible="true"
       lpeversion="1.2"
       lpesatellites=""
       mode="horizontal"
       discard_orig_path="false"
       fuse_paths="false"
       oposite_fuse="false"
       split_items="false"
       split_open="false"
       link_styles="false" />
  </defs>
  <g
     inkscape:label="Layer 1"
     inkscape:groupmode="layer"
     id="layer1">
    <path
       id="path36474"
       style="display:inline;fill:#8da5f3;fill-opacity:1;fill-rule:evenodd;stroke-width:0.86969;stroke-linecap:round;stroke-linejoin:round;stroke-miterlimit:3.4;paint-order:markers stroke fill"
       d="m 2.1166667,0.26458333 c -1.0228754,0 -1.85208335,0.66336647 -1.85208335,1.48166657 3.6768e-4,0.5888738 0.4366103,1.1216806 1.11124995,1.3572299 v 0.6800619 c 0,0.1852084 0,0.1852084 0.1852084,0.1852084 0.1852084,0 0.1852084,0 0.1852084,-0.1852084 V 3.607015 c 0,-0.1938899 0,-0.1938899 0.083923,-0.1938901 0.1012858,2e-7 0.1012858,2e-7 0.1012858,0.1967839 v 0.1736329 c 0,0.1852084 0,0.1852084 0.1852084,0.1852082 0.1852084,2e-7 0.1852084,2e-7 0.1852084,-0.1852082 l -2e-7,-0.1909961 c 2e-7,-0.1794205 2e-7,-0.1794205 0.092604,-0.1794207 0.092604,2e-7 0.092604,2e-7 0.092604,0.1852084 l 2e-7,0.1852084 c 0,0.1852084 0,0.1852084 0.1858554,0.1852082 0.1845612,2e-7 0.1845612,2e-7 0.1845612,-0.1852082 l -2e-7,-0.6800619 C 3.5321399,2.8679305 3.9683823,2.3351237 3.96875,1.7462499 3.96875,0.9279498 3.1395419,0.26458338 2.1166667,0.26458333 Z M 1.3664283,1.3758333 c 0.00319,-8.02e-5 0.0062,0 0.00941,0 0.2052104,0 0.3704166,0.1652063 0.3704166,0.3704166 V 2.1166667 C 1.74625,2.321877 1.5810438,2.4870833 1.3758333,2.4870833 1.1706229,2.4870833 1.0054167,2.321877 1.0054167,2.1166667 V 1.7462499 c 0,-0.2020039 0.1602682,-0.3653647 0.3610116,-0.3704166 z m 1.4816666,0 c 0.00319,-8.02e-5 0.0062,0 0.00941,0 0.2052106,0 0.3704168,0.165206 0.3704168,0.3704166 v 0.3704168 c 0,0.2052106 -0.1652062,0.3704166 -0.3704168,0.3704166 -0.2052135,0 -0.3704196,-0.165206 -0.3704196,-0.3704166 V 1.7462499 c 0,-0.2020041 0.1602681,-0.3653647 0.3610116,-0.3704166 z"
       sodipodi:nodetypes="scccccccccccccccccccsssssssssssssssss" />
  </g>
</svg>
